<?xml version="1.0" standalone="no"?>
<!DOCTYPE svg PUBLIC "-//W3C//DTD SVG 20010904//EN"
 "http://www.w3.org/TR/2001/REC-SVG-20010904/DTD/svg10.dtd">
<svg version="1.0" xmlns="http://www.w3.org/2000/svg"
 width="1396.000000pt" height="1396.000000pt" viewBox="0 0 1396.000000 1396.000000"
 preserveAspectRatio="xMidYMid meet">
<metadata>
Created by potrace 1.14, written by Peter Selinger 2001-2017
</metadata>
<g transform="translate(0.000000,1396.000000) scale(0.100000,-0.100000)"
fill="#000000" stroke="none">
<path d="M7010 13479 c-19 -4 -36 -12 -38 -18 -2 -6 -9 -11 -16 -11 -18 0 -84
-65 -133 -130 -43 -58 -139 -230 -128 -230 4 0 -1 -7 -9 -16 -9 -8 -14 -20
-11 -25 4 -5 1 -9 -4 -9 -6 0 -11 -6 -11 -12 -1 -7 -8 -29 -18 -48 -13 -27
-23 -35 -45 -36 -19 -1 -27 3 -23 12 3 7 -20 35 -52 64 -57 52 -194 148 -201
142 -2 -2 -7 1 -10 6 -11 17 -153 82 -164 75 -6 -3 -7 -1 -3 5 4 8 0 12 -12
12 -10 0 -22 3 -26 8 -4 4 -11 7 -14 8 -4 0 -14 4 -22 7 -42 18 -135 45 -142
41 -4 -3 -8 -2 -8 3 0 11 -41 16 -150 16 -78 1 -105 -3 -150 -23 -45 -20 -123
-70 -107 -70 2 0 -13 -18 -33 -40 -20 -22 -54 -74 -74 -115 -38 -76 -79 -185
-70 -185 3 0 0 -9 -6 -20 -11 -20 -21 -79 -24 -134 -1 -28 -7 -31 -76 -53 -41
-14 -82 -26 -90 -28 -56 -13 -374 -126 -384 -136 -6 -5 -15 -9 -22 -9 -22 0
-296 -120 -479 -210 -173 -86 -416 -224 -423 -242 -2 -4 -8 -8 -14 -8 -8 0
-72 -43 -88 -60 -3 -3 -23 -17 -45 -32 -22 -15 -52 -38 -66 -50 -15 -13 -48
-41 -75 -63 -98 -81 -132 -113 -289 -270 -188 -188 -213 -216 -325 -355 -47
-58 -89 -110 -95 -116 -6 -6 -26 -34 -45 -62 -19 -28 -38 -52 -41 -52 -4 0
-10 17 -13 38 -20 114 -84 232 -149 274 -65 41 -163 70 -224 66 -42 -2 -53 0
-53 12 -1 12 -4 11 -15 -4 -8 -11 -79 -87 -158 -170 -79 -83 -170 -180 -203
-215 -32 -36 -76 -81 -96 -100 -21 -20 -38 -42 -38 -49 0 -7 -4 -11 -9 -8 -5
4 -11 2 -13 -3 -1 -5 -55 -64 -118 -131 -63 -67 -121 -134 -129 -148 -17 -33
-19 -135 -3 -183 15 -43 63 -94 114 -120 38 -19 42 -21 115 -34 39 -7 41 -9
47 -50 8 -48 13 -79 26 -154 10 -54 10 -55 -22 -80 -18 -14 -39 -33 -48 -41
-9 -8 -32 -27 -52 -42 -20 -15 -42 -34 -50 -41 -7 -7 -23 -19 -34 -27 -12 -8
-48 -38 -80 -67 -33 -28 -71 -62 -86 -75 -15 -12 -29 -36 -31 -53 -3 -16 -8
-41 -11 -55 -25 -102 -25 -409 -1 -540 3 -14 7 -40 10 -59 3 -19 8 -38 11 -43
3 -5 7 -20 10 -34 9 -47 56 -178 91 -253 44 -92 184 -302 197 -294 5 3 6 2 3
-4 -14 -22 235 -274 300 -306 13 -5 23 -14 23 -18 0 -4 18 -18 40 -30 22 -13
40 -26 40 -29 0 -4 -21 -8 -47 -9 -82 -4 -176 -17 -203 -28 -8 -3 -24 -7 -35
-8 -11 -1 -31 -6 -45 -10 -14 -5 -27 -10 -30 -10 -49 -13 -67 -19 -75 -25 -5
-5 -29 -14 -52 -21 -24 -6 -43 -16 -43 -21 0 -4 -9 -8 -20 -8 -11 0 -20 -5
-20 -12 0 -6 -3 -9 -6 -5 -9 9 -144 -70 -144 -85 0 -5 -5 -6 -10 -3 -6 3 -13
-1 -16 -9 -3 -9 -11 -16 -16 -16 -6 0 -25 -12 -43 -27 -17 -16 -41 -34 -53
-42 -11 -8 -19 -18 -16 -23 3 -4 0 -8 -6 -8 -15 0 -100 -85 -100 -101 0 -7 -3
-9 -7 -6 -7 8 -104 -114 -97 -124 2 -4 -1 -9 -7 -11 -17 -6 -137 -227 -143
-263 -1 -5 -4 -14 -7 -20 -8 -12 -40 -110 -44 -133 -2 -9 -4 -17 -6 -17 -1 0
-3 -9 -4 -20 -2 -11 -6 -33 -10 -50 -6 -28 -8 -41 -20 -125 -14 -101 -7 -288
17 -405 5 -27 12 -63 15 -79 2 -16 10 -41 15 -55 6 -14 12 -30 13 -36 1 -10 8
-30 27 -75 6 -14 15 -36 21 -50 29 -74 95 -193 109 -198 4 -2 6 -7 4 -11 -3
-4 8 -22 23 -39 16 -17 26 -33 23 -36 -2 -3 3 -8 12 -12 9 -3 16 -11 16 -16 0
-6 15 -27 34 -47 19 -20 47 -50 63 -67 31 -35 159 -144 168 -144 3 0 15 -9 27
-20 12 -11 28 -20 35 -20 7 0 13 -4 13 -8 0 -9 194 -110 220 -114 8 -2 17 -6
20 -10 3 -4 15 -9 25 -11 11 -2 29 -7 40 -11 74 -28 117 -38 220 -52 22 -3 49
-7 60 -8 11 -2 40 -4 65 -5 l44 -1 -77 -76 c-42 -42 -74 -81 -71 -85 3 -5 1
-9 -4 -9 -20 0 -98 -134 -141 -242 -61 -155 -76 -240 -76 -433 1 -177 24 -286
102 -485 47 -121 210 -418 235 -428 4 -2 8 -8 8 -13 0 -12 130 -193 141 -197
5 -2 9 -8 9 -14 0 -8 201 -272 220 -288 3 -3 16 -18 29 -35 25 -32 132 -152
207 -231 25 -27 51 -47 58 -46 6 2 8 1 4 -3 -8 -8 11 -31 27 -32 5 -1 12 -8
15 -16 5 -13 31 -39 195 -184 32 -29 65 -53 72 -53 8 0 12 -3 10 -7 -3 -5 46
-46 109 -93 62 -47 126 -95 141 -107 16 -13 31 -23 34 -23 3 0 40 -21 80 -47
41 -27 83 -54 94 -61 11 -6 31 -18 45 -24 14 -7 27 -15 30 -19 19 -23 498
-264 685 -344 61 -25 125 -53 144 -62 18 -8 39 -16 45 -18 6 -1 25 -8 41 -14
63 -27 105 -40 105 -33 0 4 4 2 8 -4 4 -7 63 -31 132 -54 69 -23 132 -44 140
-47 21 -8 17 -7 225 -68 104 -31 199 -57 210 -60 11 -2 79 -17 150 -34 127
-29 154 -35 225 -47 42 -8 47 -8 86 -18 l31 -7 1 -77 c1 -120 48 -232 131
-309 33 -31 131 -94 156 -100 5 -1 30 -7 55 -13 93 -23 211 -11 293 32 23 11
56 22 74 24 18 1 43 13 56 26 41 39 77 68 86 68 5 0 11 9 14 20 5 19 47 30 47
12 0 -15 94 -107 136 -134 72 -46 154 -67 247 -64 94 3 127 10 171 34 17 9 33
17 36 17 3 0 15 6 27 13 34 19 102 25 161 14 28 -5 52 -6 52 -3 0 10 194 6
209 -4 23 -14 126 -34 176 -35 81 0 245 54 245 81 0 6 4 8 9 5 8 -5 111 96
111 109 0 4 9 18 19 32 43 54 69 222 48 305 -6 23 -4 28 15 33 13 2 64 14 113
26 50 11 97 22 105 24 8 2 42 10 75 19 33 9 69 19 81 21 73 16 368 115 474
160 152 64 412 191 545 266 39 21 80 43 93 49 12 5 22 14 22 20 0 5 3 9 8 9
16 -3 31 2 44 14 7 6 29 21 48 31 143 79 455 299 665 467 48 39 243 207 275
237 106 101 255 249 323 323 117 125 129 139 182 204 28 33 52 62 55 65 14 14
67 79 85 104 11 16 25 33 30 40 41 47 204 268 275 376 103 153 236 372 232
383 -1 4 2 7 7 7 5 0 15 16 22 35 7 19 16 35 20 35 22 0 51 145 50 258 -1 179
-19 271 -83 412 -28 62 -105 177 -126 189 -9 5 -17 13 -17 18 2 39 -223 201
-327 236 -23 8 -44 19 -45 23 -2 5 32 10 74 10 88 1 220 11 231 18 4 2 28 7
52 11 25 4 50 11 56 16 6 5 19 7 28 3 9 -3 16 -1 16 5 0 6 3 10 8 10 4 -1 9 0
12 1 3 1 13 3 24 5 46 9 246 103 246 117 0 5 4 7 8 4 5 -3 18 4 30 14 12 11
25 20 29 20 5 0 20 11 35 24 14 14 28 23 30 20 5 -4 201 185 227 220 8 10 29
38 47 62 19 24 31 44 26 44 -4 0 -2 4 4 8 15 9 77 113 77 130 0 6 4 12 8 12 6
0 15 22 17 44 0 5 5 12 10 15 9 6 46 106 47 126 0 6 3 15 6 20 10 16 27 77 33
115 3 19 8 46 11 60 24 119 24 295 -1 450 -12 77 -51 220 -64 235 -6 7 -7 15
-3 18 3 4 1 7 -6 7 -7 0 -10 4 -7 9 15 23 -179 351 -206 351 -6 0 -8 3 -5 7
14 13 -245 253 -272 253 -6 0 -11 3 -11 8 -1 10 -80 58 -91 54 -5 -1 -9 2 -9
7 0 19 -272 127 -291 116 -5 -4 -9 -2 -9 3 0 9 -17 14 -95 27 -16 2 -50 8 -75
13 -54 10 -286 8 -352 -3 -27 -4 -48 -3 -48 1 0 8 143 104 191 129 10 5 19 13
19 17 0 5 5 8 11 8 32 0 160 109 234 200 58 72 183 299 209 381 5 13 9 26 10
29 16 39 47 151 55 197 6 32 14 69 17 83 5 23 5 196 1 555 l-2 139 -30 16
c-41 21 -230 135 -247 148 -68 56 -169 143 -195 169 l-33 32 33 90 32 91 55 1
c72 1 91 5 145 30 63 30 105 83 121 154 10 42 7 129 -4 133 -7 2 -12 10 -12
18 0 8 -3 14 -8 14 -4 0 -13 13 -20 28 -6 16 -21 38 -32 50 -11 12 -20 24 -20
27 0 6 -51 86 -60 95 -3 3 -11 17 -19 33 -8 15 -18 27 -23 27 -4 0 -8 5 -8 10
0 6 -16 33 -35 60 -19 27 -35 51 -35 53 0 4 -39 65 -185 287 -34 52 -82 126
-105 163 -26 41 -46 63 -50 56 -5 -8 -13 -8 -26 -1 -34 18 -173 12 -234 -10
-30 -12 -56 -25 -58 -29 -2 -5 -9 -9 -16 -9 -11 0 -56 -44 -56 -55 0 -3 -8
-14 -17 -25 -10 -11 -17 -23 -15 -25 1 -3 -7 -14 -18 -25 -11 -11 -23 -34 -27
-50 -3 -17 -9 -30 -13 -30 -3 0 -7 -6 -8 -12 -1 -7 -8 -44 -16 -81 -13 -63
-22 -86 -29 -76 -9 14 -158 190 -187 223 -75 83 -93 101 -102 99 -4 -2 -7 1
-5 6 3 12 -277 284 -418 405 -16 14 -36 26 -43 26 -7 0 -11 3 -8 8 10 16 -334
255 -594 412 -155 94 -502 266 -685 340 -88 35 -163 68 -166 73 -4 5 -3 24 1
43 11 46 4 192 -11 246 -6 23 -12 48 -14 53 -1 6 -7 23 -13 38 -7 16 -12 30
-12 32 0 3 -16 31 -37 62 -38 61 -129 153 -150 153 -7 0 -13 4 -13 8 0 9 -37
31 -60 36 -8 2 -22 6 -30 9 -48 19 -231 28 -320 15 -94 -14 -268 -78 -310
-114 -15 -12 -19 -14 -41 -14 -5 0 -7 -5 -3 -12 4 -6 3 -8 -3 -5 -11 7 -138
-74 -165 -106 -10 -11 -18 -17 -18 -14 0 4 -27 -19 -60 -50 -33 -31 -58 -58
-56 -60 2 -3 12 -6 22 -7 34 -5 26 -24 -8 -20 -50 6 -55 10 -53 41 2 26 -13
81 -34 128 -11 24 -24 58 -25 65 -1 3 -21 46 -46 94 -45 89 -140 206 -166 206
-8 0 -14 4 -14 8 0 10 -66 30 -90 29 -8 0 -31 -4 -50 -8z m75 -2858 c50 -6 97
-14 105 -16 8 -2 32 -6 52 -9 21 -3 59 -11 85 -17 27 -6 58 -13 70 -15 12 -2
35 -9 50 -15 16 -6 30 -10 33 -10 14 3 191 -58 307 -105 196 -79 365 -167 532
-276 41 -26 77 -48 80 -48 3 0 19 -11 35 -25 16 -14 32 -25 36 -25 4 0 20 -11
36 -25 16 -14 32 -25 37 -25 4 0 15 -8 25 -17 11 -10 32 -27 47 -38 41 -29
184 -144 230 -185 21 -19 61 -55 87 -79 26 -24 48 -42 48 -40 0 3 69 -63 153
-146 83 -82 151 -152 150 -154 -2 -2 7 -14 20 -25 12 -12 56 -59 97 -106 41
-46 80 -89 85 -95 6 -7 28 -33 50 -60 22 -27 52 -62 66 -79 75 -89 237 -313
345 -476 68 -102 142 -211 166 -243 62 -84 239 -256 265 -257 6 0 13 -3 15 -7
18 -41 282 -162 389 -179 112 -17 164 -21 252 -20 53 1 97 -2 97 -6 0 -4 -18
-17 -40 -28 -22 -11 -40 -25 -40 -30 0 -6 -7 -10 -16 -10 -8 0 -21 -6 -29 -12
-7 -7 -26 -22 -41 -33 -59 -42 -224 -195 -210 -195 4 0 -4 -10 -17 -22 -82
-77 -251 -391 -261 -488 -1 -9 -5 -21 -9 -27 -4 -6 -9 -24 -11 -40 -3 -15 -7
-39 -10 -53 -15 -61 -19 -125 -19 -255 1 -161 4 -204 28 -300 9 -38 19 -81 21
-94 3 -14 8 -29 12 -35 4 -6 7 -13 7 -16 3 -56 189 -390 218 -390 5 0 7 -3 4
-7 -4 -3 9 -21 28 -40 19 -18 32 -33 29 -33 -12 0 140 -140 157 -145 11 -4 19
-10 19 -15 0 -4 35 -30 78 -57 83 -53 222 -126 222 -116 0 3 6 1 13 -4 10 -9
77 -34 97 -38 21 -4 51 -18 47 -22 -3 -2 -40 -6 -83 -9 -43 -2 -85 -6 -93 -9
-9 -2 -31 -7 -50 -10 -19 -3 -42 -10 -52 -16 -11 -5 -19 -8 -19 -5 0 6 -124
-46 -179 -75 -57 -31 -95 -70 -188 -194 -76 -101 -200 -250 -261 -315 -176
-184 -365 -366 -477 -456 -33 -27 -64 -54 -70 -61 -35 -40 -460 -343 -537
-382 -16 -8 -28 -18 -28 -23 0 -4 -5 -8 -10 -8 -6 0 -43 -20 -83 -44 -39 -24
-137 -77 -217 -117 -80 -40 -148 -77 -151 -82 -3 -5 -9 -8 -13 -6 -4 1 -33
-10 -64 -23 -31 -14 -72 -32 -89 -39 -18 -8 -33 -17 -33 -20 0 -4 -6 -6 -12
-5 -21 2 -168 -56 -168 -66 0 -5 -4 -7 -9 -4 -5 4 -47 -7 -93 -23 -68 -24
-188 -62 -208 -66 -3 -1 -65 -16 -138 -34 -74 -18 -143 -34 -155 -37 -42 -8
-132 -24 -162 -29 -16 -3 -46 -8 -65 -12 -19 -3 -38 -6 -41 -5 -3 0 -37 -3
-75 -9 -38 -5 -91 -12 -119 -14 -27 -2 -81 -7 -120 -11 -90 -8 -520 -9 -605
-1 -36 4 -96 9 -135 12 -116 10 -348 43 -425 61 -14 3 -36 8 -50 11 -14 2 -59
13 -100 23 -41 10 -86 21 -100 24 -14 3 -40 9 -58 15 -18 5 -33 10 -35 10 -3
0 -16 4 -182 57 -82 27 -153 48 -157 46 -5 -1 -8 2 -8 8 0 6 -3 9 -7 8 -8 -1
-29 6 -78 27 -16 8 -52 22 -80 33 -99 39 -330 151 -439 212 -129 72 -141 80
-121 81 11 0 77 0 148 1 l127 0 0 101 c0 56 1 479 1 940 0 460 4 837 9 837 4
0 10 -6 12 -12 3 -7 67 -200 143 -428 76 -228 141 -417 144 -420 3 -3 7 -12 7
-20 1 -8 39 -125 84 -260 46 -135 121 -355 165 -490 l82 -245 582 -1 c426 -1
581 1 581 10 0 6 -14 49 -31 96 -17 47 -36 100 -42 117 -6 18 -14 33 -19 33
-5 0 -7 4 -4 8 3 5 -15 64 -40 131 -25 67 -43 125 -41 128 3 3 23 -12 45 -33
92 -91 177 -159 252 -204 57 -33 152 -80 168 -84 9 -1 24 -6 32 -9 76 -31 131
-33 835 -30 639 2 748 4 765 13 3 2 10 4 15 4 24 3 175 71 175 78 0 5 4 7 9 3
5 -3 16 1 24 9 8 8 17 13 19 10 3 -2 17 7 31 20 15 14 27 22 27 18 1 -4 10 4
20 17 11 13 20 20 20 16 0 -8 118 93 165 141 57 59 90 99 87 107 -1 4 2 7 7 7
12 0 107 129 104 141 -2 5 1 9 6 9 12 0 99 145 162 269 29 59 71 123 95 149
24 25 42 48 39 50 -3 3 2 10 11 16 18 14 29 171 14 210 -5 13 -6 27 -2 30 7 7
7 7 16 86 12 100 23 215 25 278 1 9 10 10 34 5 66 -16 248 -6 281 15 6 3 17 7
23 8 21 3 83 45 83 55 0 6 5 7 10 4 6 -3 10 1 10 10 0 9 4 14 9 11 5 -4 17 14
27 39 9 25 22 45 29 45 15 0 105 94 106 112 1 7 3 27 5 43 8 56 8 80 0 123 -9
50 -30 95 -39 85 -4 -3 -7 1 -7 9 0 9 -6 21 -14 27 -13 11 -13 7 -5 -24 12
-42 3 -60 -13 -30 -6 11 -22 30 -34 42 -13 13 -20 23 -17 23 3 0 -5 10 -18 21
-51 45 -86 69 -102 69 -8 0 -17 4 -19 9 -1 6 -14 12 -28 15 -14 2 -32 7 -40
10 -26 10 -130 15 -130 6 0 -7 16 -16 33 -18 16 -2 68 -62 81 -94 13 -31 14
-59 3 -131 -3 -16 0 -45 5 -65 5 -21 10 -48 12 -61 2 -13 10 -27 17 -32 8 -5
10 -9 5 -9 -5 0 -1 -9 10 -21 38 -42 14 -159 -32 -159 -8 0 -14 -4 -14 -10 0
-24 -183 -30 -206 -7 -4 4 -15 7 -25 7 -10 0 -20 8 -23 18 -3 9 -3 134 -1 277
10 567 5 1415 -10 1520 -2 17 -7 57 -10 90 -4 33 -9 67 -12 75 -3 8 -7 24 -9
35 -10 56 -14 74 -24 115 -7 25 -14 52 -18 60 -3 8 -6 17 -7 20 -8 34 -43 128
-65 175 -15 33 -38 84 -50 113 -13 28 -28 52 -33 52 -6 0 -7 3 -4 6 6 6 -18
59 -33 74 -6 6 -29 46 -48 83 -7 15 -18 27 -23 27 -6 0 -8 4 -4 9 3 5 1 13 -5
16 -6 4 -21 23 -34 44 -13 20 -41 55 -62 76 -21 22 -36 41 -34 41 6 2 -97 114
-105 114 -2 0 -18 14 -33 30 -16 17 -35 30 -41 30 -7 0 -9 5 -6 10 3 6 1 10
-4 10 -10 0 -36 19 -66 48 -8 6 -16 12 -19 12 -4 0 -28 15 -54 33 -45 32 -212
117 -236 121 -6 1 -15 4 -21 7 -29 17 -135 46 -210 57 -54 7 -1107 7 -1170 -1
-117 -14 -321 -97 -465 -189 -44 -28 -82 -49 -84 -47 -3 2 5 29 16 59 11 30
20 62 21 70 1 8 5 17 8 20 3 3 10 19 16 35 l10 30 -531 -2 c-292 0 -540 -2
-551 -2 -16 -1 -26 -16 -44 -68 -27 -78 -70 -196 -135 -372 -25 -68 -43 -128
-40 -133 3 -4 1 -8 -4 -8 -7 0 -18 -25 -37 -90 -1 -3 -5 -12 -8 -20 -3 -8 -29
-80 -57 -160 -28 -80 -58 -160 -66 -178 -8 -18 -12 -37 -9 -42 3 -4 1 -10 -3
-12 -5 -1 -27 -55 -49 -118 -23 -63 -60 -167 -83 -230 -23 -63 -60 -167 -82
-230 -22 -63 -44 -124 -49 -135 -5 -11 -29 -76 -53 -145 -60 -171 -82 -225
-88 -214 -2 5 -5 499 -7 1099 -1 599 -4 1092 -6 1095 -2 3 -197 5 -434 5 -237
0 -431 1 -431 2 0 2 8 11 18 21 9 10 37 42 62 72 25 29 65 76 90 103 25 28 44
54 42 59 -1 4 1 7 5 6 5 -1 80 70 169 158 179 178 232 228 319 299 33 28 62
53 65 56 3 3 28 24 57 46 29 22 49 44 45 48 -4 5 -1 5 5 1 8 -4 22 3 35 17 13
14 27 25 31 25 5 0 19 9 32 20 61 53 332 223 461 290 74 38 107 53 164 77 36
15 79 33 95 40 63 27 162 64 205 75 25 6 64 18 87 25 46 16 43 15 194 45 230
45 534 58 744 31z m-3075 -4041 l0 -2331 -20 11 c-12 6 -110 100 -219 208
-171 170 -226 230 -355 382 -11 14 -50 64 -86 110 -36 47 -74 93 -85 102 -42
37 -183 126 -239 153 -49 22 -163 66 -173 66 -16 -1 -63 13 -63 18 0 4 22 18
50 32 27 13 50 27 50 32 0 4 5 7 11 7 13 0 109 67 127 89 6 8 12 11 12 7 0
-11 117 100 193 184 8 8 35 44 61 80 25 36 50 70 56 77 5 7 10 15 10 19 0 3 9
18 19 33 11 15 21 34 23 41 2 8 9 21 16 28 7 8 10 17 7 22 -3 5 -1 10 3 12 9
3 70 153 79 193 8 37 11 50 13 53 3 3 5 11 14 62 5 25 10 54 12 65 20 105 20
343 -1 445 -3 14 -7 36 -10 50 -10 53 -14 67 -40 150 -30 92 -64 171 -78 181
-5 3 -8 9 -7 13 3 12 -25 66 -33 66 -5 0 -6 4 -3 9 3 5 -7 21 -22 37 -15 15
-21 24 -14 20 13 -8 -67 103 -95 132 -7 7 -13 17 -13 22 0 5 -9 11 -20 15 -11
3 -19 10 -17 15 3 15 -135 140 -147 133 -6 -3 -8 -3 -4 2 8 9 -7 21 -106 88
-37 26 -73 44 -80 40 -6 -3 -8 -2 -3 2 4 5 -16 19 -44 32 -44 20 -57 37 -31
39 25 1 162 39 162 44 0 3 9 6 19 7 31 3 179 78 276 141 108 70 237 177 227
187 -4 5 -2 5 4 2 13 -8 130 112 170 174 16 24 31 46 34 49 15 13 50 70 44 70
-4 0 -1 6 7 13 9 6 58 71 109 142 104 143 190 255 196 255 2 0 4 -1049 4
-2330z m4518 1516 c18 -3 41 -10 52 -16 10 -5 26 -10 35 -10 45 0 201 -90 269
-155 12 -11 25 -19 29 -17 5 1 6 -2 3 -7 -4 -5 4 -17 16 -25 12 -9 19 -16 14
-16 -4 0 3 -13 16 -28 30 -37 94 -174 119 -257 6 -22 16 -46 22 -52 5 -7 7
-13 3 -13 -3 0 -1 -12 5 -27 12 -31 15 -44 29 -118 14 -74 18 -120 26 -330 9
-233 11 -502 4 -573 l-5 -53 -80 75 c-118 111 -150 121 -465 140 -41 3 -97 12
-124 20 -27 8 -53 13 -58 10 -5 -4 -12 3 -15 15 -3 12 -10 21 -15 21 -5 0 -7
4 -4 8 5 8 -52 184 -72 220 -7 12 -19 22 -27 22 -7 0 -15 4 -17 8 -1 5 -34 28
-73 51 -38 24 -92 58 -120 77 -27 19 -56 32 -63 29 -7 -3 -10 0 -7 5 3 6 -3
10 -14 10 -12 0 -21 5 -21 10 0 6 -7 10 -15 10 -19 0 -65 21 -65 31 0 14 91 1
127 -19 12 -7 27 -12 33 -12 6 0 23 -11 38 -25 15 -14 37 -28 50 -31 12 -4 22
-9 22 -13 0 -13 158 -76 167 -67 2 2 -12 19 -30 39 -19 19 -52 61 -73 93 -21
33 -41 61 -45 64 -3 3 -14 19 -22 37 -20 39 -86 92 -148 121 -54 24 -213 78
-256 86 -15 3 -41 8 -58 11 -68 13 -82 15 -135 20 -30 3 -64 8 -75 10 -11 2
-24 4 -30 5 -5 0 -2 6 9 12 17 10 119 7 296 -7 l45 -4 -44 20 c-24 10 -60 26
-80 35 -20 9 -55 25 -79 37 -23 11 -49 20 -57 20 -8 0 -15 4 -15 8 0 3 -12 10
-27 13 -16 4 -48 12 -73 17 -67 16 -170 18 -218 3 -23 -7 -46 -13 -50 -14 -32
-5 -61 -15 -86 -27 -38 -19 -76 -26 -76 -13 0 5 25 26 55 46 30 20 55 38 55
41 0 2 -31 1 -70 -3 -43 -3 -70 -2 -70 4 0 17 29 66 97 162 10 14 28 33 41 43
12 10 19 24 15 30 -3 7 -3 9 1 5 5 -4 20 4 35 18 86 83 236 155 350 169 18 2
36 6 38 9 7 7 922 -1 961 -8z m-2402 -1443 c10 -554 12 -923 5 -923 -5 0 -20
33 -34 73 -48 140 -88 252 -97 272 -18 39 -69 180 -75 207 -5 19 19 96 91 292
53 146 99 264 102 262 2 -3 6 -85 8 -183z m2803 -1126 c61 -64 141 -114 162
-101 5 3 9 1 9 -5 0 -5 12 -11 28 -13 20 -2 28 -9 30 -27 4 -29 -17 -101 -30
-101 -4 0 -8 -5 -8 -11 0 -15 -101 -161 -123 -177 -9 -7 -15 -18 -12 -23 4 -5
-1 -9 -9 -9 -9 0 -16 -4 -16 -9 0 -8 -53 -62 -124 -126 -27 -25 -143 -108
-163 -118 -13 -6 -23 -14 -23 -18 0 -22 -92 -27 -608 -35 l-343 -5 5 34 c9 59
20 86 80 207 26 52 58 113 71 135 14 22 23 46 20 53 -2 6 0 12 5 12 6 0 10 8
10 18 0 10 18 36 41 57 22 22 56 65 76 95 20 30 37 57 39 59 2 2 20 -13 40
-33 20 -20 41 -36 46 -36 4 0 10 0 13 0 12 0 46 -43 47 -58 0 -9 -5 -37 -11
-62 -7 -25 -14 -61 -17 -80 -6 -39 -29 -80 -53 -95 -9 -5 -34 -10 -56 -10 -22
-1 -51 -5 -65 -10 -36 -11 -120 -85 -120 -105 0 -9 -6 -22 -12 -29 -11 -11 -8
-13 15 -9 18 4 27 1 27 -8 0 -29 45 -38 202 -41 131 -2 160 0 170 13 38 45 78
76 118 92 71 27 85 42 115 122 16 41 38 95 49 120 11 25 19 48 18 53 -1 4 2 7
6 7 10 0 33 45 39 72 1 9 -5 36 -15 60 -21 48 -26 162 -9 193 14 27 24 36 87
77 96 62 87 62 139 -1 25 -31 75 -87 110 -124z m-2005 -25 c12 -13 28 -24 36
-26 8 -1 25 -8 38 -14 12 -7 22 -10 22 -6 0 3 7 1 15 -6 8 -7 15 -10 15 -6 0
4 11 -1 25 -10 14 -9 25 -13 25 -10 0 10 61 -23 103 -56 35 -28 48 -60 28 -72
-20 -13 -32 -134 -18 -181 16 -56 19 -102 7 -144 -9 -33 -14 -40 -24 -32 -7 6
-17 7 -21 3 -5 -4 -5 -1 -1 5 4 8 -2 17 -16 24 -13 6 -45 37 -73 69 -27 32
-53 56 -58 53 -4 -2 -6 0 -5 5 2 5 -14 28 -34 50 -21 23 -38 44 -38 47 0 3
-10 17 -22 31 -52 57 -58 64 -51 64 3 0 -2 9 -12 20 -15 17 -18 40 -19 145
l-2 125 30 -28 c16 -15 39 -37 50 -50z"/>
</g>
</svg>
